<svg width="12" height="12" viewBox="0 0 12 12" fill="none" xmlns="http://www.w3.org/2000/svg">
<path d="M4.25 11.55C3.3 11.55 2.35 11.2 1.6 10.45C0.9 9.75003 0.5 8.80003 0.5 7.80003C0.5 6.80003 0.9 5.85003 1.6 5.15002L5.5 1.25002C6.55 0.200024 8.3 0.200024 9.4 1.25002C10.5 2.30002 10.45 4.05002 9.4 5.15002L5.85 8.70003C5.15 9.40003 4.05 9.40003 3.35 8.70003C2.65 8.00003 2.65 6.90002 3.35 6.20002L6.35 3.20002C6.55 3.00002 6.85 3.00002 7.05 3.20002C7.25 3.40002 7.25 3.70002 7.05 3.90002L4.05 6.90003C3.75 7.20003 3.75 7.65002 4.05 7.95003C4.35 8.25003 4.8 8.25003 5.1 7.95003L8.65 4.40002C9 4.05002 9.15 3.65002 9.15 3.15002C9.15 2.70002 8.95 2.25002 8.65 1.90002C7.95 1.20002 6.85 1.20002 6.2 1.90002L2.3 5.80002C1.8 6.30002 1.5 7.00003 1.5 7.75003C1.5 8.50003 1.8 9.15003 2.3 9.70003C3.35 10.75 5.1 10.75 6.2 9.70003L10.6 5.30002C10.8 5.10003 11.1 5.10003 11.3 5.30002C11.5 5.50003 11.5 5.80002 11.3 6.00002L6.9 10.4C6.2 11.2 5.25 11.55 4.25 11.55Z" fill="#BDBDBD"/>
</svg>
