<svg width="12" height="12" viewBox="0 0 12 12" fill="none" xmlns="http://www.w3.org/2000/svg">
<path d="M10 1H2V0.5C2 0.367392 2.05268 0.240215 2.14645 0.146447C2.24021 0.0526784 2.36739 0 2.5 0L9.5 0C9.63261 0 9.75979 0.0526784 9.85355 0.146447C9.94732 0.240215 10 0.367392 10 0.5V1Z" fill="#BDBDBD"/>
<path d="M11.5 2H0.5C0.367392 2 0.240215 2.05268 0.146447 2.14645C0.0526784 2.24021 0 2.36739 0 2.5L0 11.5C0 11.6326 0.0526784 11.7598 0.146447 11.8536C0.240215 11.9473 0.367392 12 0.5 12H11.5C11.6326 12 11.7598 11.9473 11.8536 11.8536C11.9473 11.7598 12 11.6326 12 11.5V2.5C12 2.36739 11.9473 2.24021 11.8536 2.14645C11.7598 2.05268 11.6326 2 11.5 2ZM3.5 4C3.69778 4 3.89112 4.05865 4.05557 4.16853C4.22002 4.27841 4.34819 4.43459 4.42388 4.61732C4.49957 4.80004 4.51937 5.00111 4.48079 5.19509C4.4422 5.38907 4.34696 5.56725 4.20711 5.70711C4.06725 5.84696 3.88907 5.9422 3.69509 5.98079C3.50111 6.01937 3.30004 5.99957 3.11732 5.92388C2.93459 5.84819 2.77841 5.72002 2.66853 5.55557C2.55865 5.39112 2.5 5.19778 2.5 5C2.5 4.73478 2.60536 4.48043 2.79289 4.29289C2.98043 4.10536 3.23478 4 3.5 4ZM2.5 9.5L7.5 5L10 9.5H2.5Z" fill="#BDBDBD"/>
</svg>
