<svg width="12" height="12" viewBox="0 0 12 12" fill="none" xmlns="http://www.w3.org/2000/svg">
<path d="M11.5 6.5H0.5C0.224 6.5 0 6.2765 0 6C0 5.7235 0.224 5.5 0.5 5.5H11.5C11.776 5.5 12 5.7235 12 6C12 6.2765 11.776 6.5 11.5 6.5Z" fill="#BDBDBD"/>
<path d="M11.5 3H0.5C0.224 3 0 2.7765 0 2.5C0 2.2235 0.224 2 0.5 2H11.5C11.776 2 12 2.2235 12 2.5C12 2.7765 11.776 3 11.5 3Z" fill="#BDBDBD"/>
<path d="M6 10H0.5C0.224 10 0 9.7765 0 9.5C0 9.2235 0.224 9 0.5 9H6C6.276 9 6.5 9.2235 6.5 9.5C6.5 9.7765 6.276 10 6 10Z" fill="#BDBDBD"/>
</svg>
